<svg xmlns="http://www.w3.org/2000/svg" width="128" height="128" viewBox="0 0 128 128">
  <defs>
    <linearGradient id="tile" x1="0" y1="0" x2="1" y2="1">
      <stop stop-color="#28c0ff"/><stop offset="1" stop-color="#1670ed"/>
    </linearGradient>
    <radialGradient id="light" cx=".2" cy=".1" r=".85">
      <stop stop-color="white" stop-opacity=".14"/><stop offset="1" stop-color="white" stop-opacity="0"/>
    </radialGradient>
  </defs>
  <rect x="5" y="5" width="118" height="118" rx="36" fill="url(#tile)"/>
  <rect x="5" y="5" width="118" height="118" rx="36" fill="url(#light)"/>
  <g transform="translate(30 30) scale(2.8333333)" fill="none" stroke="white" stroke-width="2.8"
     stroke-linecap="round" stroke-linejoin="round"><polyline points="22 12 16 12 14 15 10 15 8 12 2 12" />
  <path d="M5.45 5.11 2 12v6a2 2 0 0 0 2 2h16a2 2 0 0 0 2-2v-6l-3.45-6.89A2 2 0 0 0 16.76 4H7.24a2 2 0 0 0-1.79 1.11z" />
</g>
</svg>