<svg xmlns="http://www.w3.org/2000/svg" width="128" height="128" viewBox="0 0 128 128">
  <defs>
    <linearGradient id="tile" x1="0" y1="0" x2=".7" y2="1">
      <stop stop-color="#9770ff"/><stop offset=".45" stop-color="#5540df"/>
      <stop offset="1" stop-color="#5540df"/>
    </linearGradient>
    <radialGradient id="light" cx=".25" cy=".05" r=".9">
      <stop stop-color="white" stop-opacity=".4"/><stop offset=".6" stop-color="white" stop-opacity=".08"/>
      <stop offset="1" stop-color="white" stop-opacity="0"/>
    </radialGradient>
    <linearGradient id="shade" x1="0" y1="0" x2="0" y2="1">
      <stop offset=".4" stop-opacity="0"/><stop offset="1" stop-opacity=".3"/>
    </linearGradient>
    <linearGradient id="gloss" x1="0" y1="0" x2=".2" y2="1">
      <stop stop-color="white" stop-opacity=".6"/><stop offset="1" stop-color="white" stop-opacity="0"/>
    </linearGradient>
    <linearGradient id="rim" x1="0" y1="0" x2=".7" y2="1">
      <stop stop-color="white" stop-opacity=".65"/><stop offset=".5" stop-color="white" stop-opacity=".1"/>
      <stop offset="1" stop-color="white" stop-opacity=".25"/>
    </linearGradient>
    <linearGradient id="symbol" gradientUnits="userSpaceOnUse" x1="0" y1="0" x2="0" y2="24">
      <stop stop-color="white"/><stop offset=".6" stop-color="#ffffff"/>
      <stop offset="1" stop-color="#e5eaff"/>
    </linearGradient>
    <filter id="glow" x="-40%" y="-40%" width="180%" height="180%">
      <feGaussianBlur in="SourceGraphic" stdDeviation="1.5" result="bloom"/>
      <feMerge><feMergeNode in="bloom"/><feMergeNode in="SourceGraphic"/></feMerge>
    </filter>
    <clipPath id="tileClip"><rect x="5" y="5" width="118" height="118" rx="36"/></clipPath>
  </defs>
  <g clip-path="url(#tileClip)">
    <rect x="5" y="5" width="118" height="118" rx="36" fill="url(#tile)"/>
    <rect x="5" y="5" width="118" height="118" rx="36" fill="url(#light)"/>
    <rect x="5" y="5" width="118" height="118" rx="36" fill="url(#shade)"/>
    <path d="M13 42C13 21 25 12 44 12H86C99 12 107 17 112 26C81 19 43 29 16 48Z" fill="url(#gloss)"/>
    <rect x="9" y="9" width="110" height="110" rx="32" fill="none" stroke="url(#rim)" stroke-width="1.5"/>
    <g transform="translate(30 32) scale(2.8333333)" fill="none" stroke="url(#symbol)" stroke-width="2.8"
       stroke-linecap="round" stroke-linejoin="round" filter="url(#glow)"><path d="M21 15V6" />
  <path d="M18.5 18a2.5 2.5 0 1 0 0-5 2.5 2.5 0 0 0 0 5Z" />
  <path d="M12 12H3" />
  <path d="M16 6H3" />
  <path d="M12 18H3" />
</g>
    <path d="M105 20Q105 27 111 27Q105 27 105 34Q105 27 99 27Q105 27 105 20Z" fill="white" opacity=".9"/>
  </g>
</svg>