<svg xmlns="http://www.w3.org/2000/svg" width="128" height="128" viewBox="0 0 128 128">
  <defs>
    <linearGradient id="tile" x1="0" y1="0" x2="1" y2="1">
      <stop stop-color="#ffdf48"/><stop offset="1" stop-color="#f5a800"/>
    </linearGradient>
    <radialGradient id="light" cx=".2" cy=".1" r=".85">
      <stop stop-color="white" stop-opacity=".14"/><stop offset="1" stop-color="white" stop-opacity="0"/>
    </radialGradient>
  </defs>
  <rect x="5" y="5" width="118" height="118" rx="36" fill="url(#tile)"/>
  <rect x="5" y="5" width="118" height="118" rx="36" fill="url(#light)"/>
  <g transform="translate(30 30) scale(2.8333333)" fill="none" stroke="white" stroke-width="2.8"
     stroke-linecap="round" stroke-linejoin="round"><path d="M21.174 6.812a1 1 0 0 0-3.986-3.987L3.842 16.174a2 2 0 0 0-.5.83l-1.321 4.352a.5.5 0 0 0 .623.622l4.353-1.32a2 2 0 0 0 .83-.497z" />
  <path d="m15 5 4 4" />
</g>
</svg>