<svg xmlns="http://www.w3.org/2000/svg" width="128" height="128" viewBox="0 0 128 128">
  <defs>
    <linearGradient id="tile" x1="0" y1="0" x2="1" y2="1">
      <stop stop-color="#69ff09"/><stop offset="1" stop-color="#16db00"/>
    </linearGradient>
    <radialGradient id="light" cx=".2" cy=".1" r=".85">
      <stop stop-color="white" stop-opacity=".14"/><stop offset="1" stop-color="white" stop-opacity="0"/>
    </radialGradient>
  </defs>
  <rect x="5" y="5" width="118" height="118" rx="36" fill="url(#tile)"/>
  <rect x="5" y="5" width="118" height="118" rx="36" fill="url(#light)"/>
  <g transform="translate(30 30) scale(2.8333333)" fill="none" stroke="white" stroke-width="2.8"
     stroke-linecap="round" stroke-linejoin="round"><path d="M15.2 3a2 2 0 0 1 1.4.6l3.8 3.8a2 2 0 0 1 .6 1.4V19a2 2 0 0 1-2 2H5a2 2 0 0 1-2-2V5a2 2 0 0 1 2-2z" />
  <path d="M17 21v-7a1 1 0 0 0-1-1H8a1 1 0 0 0-1 1v7" />
  <path d="M7 3v4a1 1 0 0 0 1 1h7" />
</g>
</svg>