<svg xmlns="http://www.w3.org/2000/svg" width="128" height="128" viewBox="0 0 128 128">
  <defs>
    <linearGradient id="tile" x1="0" y1="0" x2="1" y2="1">
      <stop stop-color="#ffac47"/><stop offset="1" stop-color="#f26316"/>
    </linearGradient>
    <radialGradient id="light" cx=".2" cy=".1" r=".85">
      <stop stop-color="white" stop-opacity=".14"/><stop offset="1" stop-color="white" stop-opacity="0"/>
    </radialGradient>
  </defs>
  <rect x="5" y="5" width="118" height="118" rx="36" fill="url(#tile)"/>
  <rect x="5" y="5" width="118" height="118" rx="36" fill="url(#light)"/>
  <g transform="translate(30 30) scale(2.8333333)" fill="none" stroke="white" stroke-width="2.8"
     stroke-linecap="round" stroke-linejoin="round"><path d="M14.7 6.3a1 1 0 0 0 0 1.4l1.6 1.6a1 1 0 0 0 1.4 0l3.77-3.77a6 6 0 0 1-7.94 7.94l-6.91 6.91a2.12 2.12 0 0 1-3-3l6.91-6.91a6 6 0 0 1 7.94-7.94l-3.76 3.76z" />
</g>
</svg>